<?xml version="1.0" encoding="utf-8"?>
<!-- Generator: Adobe Illustrator 24.1.3, SVG Export Plug-In . SVG Version: 6.00 Build 0)  -->
<svg version="1.1" id="Layer_1" xmlns="http://www.w3.org/2000/svg" xmlns:xlink="http://www.w3.org/1999/xlink" x="0px" y="0px"
	 viewBox="0 0 250 250" style="enable-background:new 0 0 250 250;" xml:space="preserve">
<style type="text/css">
	.st0{fill:#18348C;}
</style>
<path class="st0" d="M241.39,17.43c1.37-1.7,3.07-3.26,1.81-5.99c-1.43-3.11-3.23-4.26-6.61-3.44
	c-20.35,4.91-40.09,11.53-58.99,20.65c-1.45,0.7-2.85,1.48-4.28,2.2c-16.1-8.87-34.6-13.93-54.29-13.93
	C56.8,16.92,6.36,67.36,6.36,129.58S56.8,242.25,119.03,242.25s112.67-50.44,112.67-112.67c0-23.89-7.46-46.03-20.14-64.26
	c4.46-11.74,10.36-22.83,17.78-33.06C233.07,27.12,237.4,22.4,241.39,17.43 M78.06,144.95c-8.48,0-15.36-6.88-15.36-15.36
	c0-8.48,6.88-15.36,15.36-15.36c8.49,0,15.36,6.88,15.36,15.36C93.42,138.07,86.54,144.95,78.06,144.95 M119.03,144.95
	c-8.48,0-15.36-6.88-15.36-15.36c0-8.48,6.88-15.36,15.36-15.36c8.49,0,15.36,6.88,15.36,15.36
	C134.39,138.07,127.51,144.95,119.03,144.95 M160,144.95c-8.48,0-15.36-6.88-15.36-15.36c0-8.48,6.88-15.36,15.36-15.36
	c8.49,0,15.36,6.88,15.36,15.36C175.36,138.07,168.48,144.95,160,144.95"/>
<g>
	<path class="st0" d="M399.88,103c-4.78,0-8.69-0.64-11.78-1.52c-0.58-0.17-1.22-0.52-1.22-1.17v-7.17c0-0.82,0.35-1.22,1.22-1.17
		c2.51,0.23,8.75,0.87,11.83,0.87c2.86,0,3.67-1.11,3.67-2.97c0-1.17-0.58-1.81-2.74-3.09l-8.4-4.96
		c-5.48-3.21-6.94-7.17-6.94-11.66c0-6.35,3.5-11.6,15.27-11.6c4.61,0,10.84,0.76,13.23,1.46c0.52,0.17,1.05,0.47,1.05,1.11v7.29
		c0,0.64-0.23,1.17-1.17,1.11c-2.39-0.18-9.04-0.76-13.23-0.76c-2.16,0-2.91,0.76-2.91,1.98c0,1.05,0.52,1.63,3.03,2.97l7.87,4.2
		c5.66,3.03,7.7,6.88,7.7,11.72C416.38,96.18,411.89,103,399.88,103"/>
	<path class="st0" d="M540.73,102.47H530c-0.64,0-0.87-0.58-1.17-1.17l-7.4-14.23c-0.87,0-1.52,0-3.32-0.06v14.28
		c0,0.64-0.52,1.17-1.17,1.17h-9.44c-0.64,0-1.22-0.52-1.22-1.17V63.18c0-2.8,0.93-3.44,3.38-3.85c2.33-0.35,8.16-0.76,12.3-0.76
		c10.84,0,18.25,3.44,18.25,14.11v0.93c0,6.24-3.44,9.91-7.11,11.48l8.45,15.86c0.12,0.23,0.18,0.47,0.18,0.64
		C541.72,102.12,541.31,102.47,540.73,102.47 M528.43,72.68c0-2.74-1.92-4.14-5.83-4.14c-0.41,0-2.8,0-4.49,0.12v9.27
		c0.29,0.06,3.91,0.06,4.26,0.06c4.49,0,6.06-1.57,6.06-4.31V72.68z"/>
	<path class="st0" d="M583.17,102.47h-12.24c-0.7,0-0.93-0.47-1.22-0.99l-10.26-18.6v18.42c0,0.64-0.52,1.17-1.17,1.17h-9.5
		c-0.64,0-1.22-0.52-1.22-1.17V60.26c0-0.64,0.58-1.11,1.22-1.11h9.5c0.64,0,1.17,0.47,1.17,1.11v18.48l11.19-18.66
		c0.29-0.52,0.64-0.93,1.28-0.93h11.19c0.52,0,0.82,0.23,0.82,0.64c0,0.18-0.06,0.41-0.23,0.64l-12.71,20.05l12.77,20.75
		c0.12,0.17,0.17,0.41,0.17,0.58C583.93,102.18,583.7,102.47,583.17,102.47"/>
	<path class="st0" d="M453.4,98.68c1.43-2.8,3.1-5.45,4.96-7.97V60.26c0-0.64-0.52-1.11-1.17-1.11h-9.5c-0.64,0-1.17,0.47-1.17,1.11
		v14.92h-12.18V60.26c0-0.64-0.52-1.11-1.17-1.11h-9.5c-0.64,0-1.22,0.47-1.22,1.11v41.04c0,0.64,0.58,1.17,1.22,1.17h9.5
		c0.64,0,1.17-0.52,1.17-1.17V85.45h12.18v15.86c0,0.64,0.52,1.17,1.17,1.17h3.91C452.17,101.2,452.76,99.93,453.4,98.68"/>
	<path class="st0" d="M493.51,65.57c-1.28-5.77-5.66-6.94-11.19-6.94c-5.54,0-9.91,1.17-11.19,6.94l-3.28,14.99
		c0.54-0.45,1.08-0.89,1.64-1.32c3.11-2.39,6.44-4.45,9.98-6.15c3.98-1.92,8.13-3.31,12.42-4.35c0.71-0.17,1.09,0.07,1.39,0.72
		c0.26,0.57-0.09,0.9-0.38,1.26c-0.84,1.05-1.75,2.04-2.54,3.12c-1.84,2.54-3.24,5.32-4.22,8.29c-0.57,1.74-0.98,3.55-1.38,5.34
		c-0.26,1.19-0.4,2.41-0.56,3.61c-0.07,0.55-0.1,1.1-0.13,1.65c-0.07,1.37-0.2,2.74-0.16,4.11c0.05,1.48,0.21,2.95,0.37,4.42
		c2.49,0.49,5.69,0.58,9.82,0c2.59-0.36,4.93-0.61,7.06-0.78L493.51,65.57z"/>
	<path class="st0" d="M391.44,115.1c-0.72,0-1.7-0.07-2.01-0.12c-0.17-0.03-0.26-0.11-0.26-0.32v-6.86c0-0.2,0.09-0.29,0.26-0.32
		c0.31-0.05,1.28-0.12,2.01-0.12c2.04,0,3.2,1.1,3.2,3.12v1.5C394.64,114,393.48,115.1,391.44,115.1 M393.23,110.48
		c0-1.53-0.77-1.93-1.79-1.93c-0.38,0-0.64,0.02-0.86,0.03v5.29c0.21,0.01,0.48,0.03,0.86,0.03c1.02,0,1.79-0.4,1.79-1.93V110.48z"
		/>
	<path class="st0" d="M406.36,115.02h-1.01c-0.11,0-0.2-0.09-0.2-0.2v-7.18c0-0.11,0.09-0.19,0.2-0.19h1.01
		c0.11,0,0.2,0.08,0.2,0.19v7.18C406.56,114.93,406.47,115.02,406.36,115.02"/>
	<path class="st0" d="M422.02,114.93c-0.51,0.1-1.17,0.17-2.22,0.17c-1.1,0-2.73-0.72-2.73-3.13v-1.47c0-2.42,1.55-3.14,2.76-3.14
		c0.98,0,1.86,0.12,2.19,0.18c0.13,0.03,0.19,0.08,0.19,0.21v0.68c0,0.14-0.04,0.21-0.2,0.21h-0.03c-0.47-0.04-1.17-0.08-2.15-0.08
		c-0.68,0-1.34,0.48-1.34,1.93v1.47c0,1.45,0.7,1.92,1.3,1.92c0.38,0,0.69-0.01,1.01-0.03v-2.6c0-0.11,0.08-0.2,0.19-0.2h1.01
		c0.11,0,0.2,0.09,0.2,0.2v3.43C422.21,114.82,422.15,114.9,422.02,114.93"/>
	<path class="st0" d="M434.13,115.02h-1.01c-0.11,0-0.2-0.09-0.2-0.2v-7.18c0-0.11,0.09-0.19,0.2-0.19h1.01
		c0.11,0,0.2,0.08,0.2,0.19v7.18C434.33,114.93,434.24,115.02,434.13,115.02"/>
	<path class="st0" d="M449.72,108.63h-1.78v6.19c0,0.11-0.09,0.2-0.2,0.2h-1.01c-0.11,0-0.2-0.09-0.2-0.2v-6.19h-1.78
		c-0.11,0-0.2-0.07-0.2-0.18v-0.81c0-0.11,0.09-0.19,0.2-0.19h4.99c0.11,0,0.2,0.08,0.2,0.19v0.81
		C449.92,108.56,449.83,108.63,449.72,108.63"/>
	<path class="st0" d="M464.8,115.02h-1.08c-0.09,0-0.17-0.08-0.19-0.17l-0.47-1.94h-2.35l-0.47,1.94c-0.02,0.09-0.1,0.17-0.19,0.17
		h-1.08c-0.1,0-0.18-0.07-0.18-0.17c0-0.01,0.01-0.03,0.01-0.05l1.67-6.39c0.25-0.95,0.98-1.04,1.42-1.04
		c0.44,0,1.17,0.09,1.42,1.04l1.67,6.39c0,0.02,0.01,0.04,0.01,0.05C464.98,114.95,464.9,115.02,464.8,115.02 M462.05,108.72
		c-0.03-0.12-0.06-0.16-0.16-0.16c-0.1,0-0.13,0.04-0.16,0.16l-0.73,3.03h1.79L462.05,108.72z"/>
	<path class="st0" d="M479,114.96c-0.31,0.07-1.19,0.14-1.73,0.14c-1.33,0-2.36-0.36-2.36-2.09v-5.36c0-0.11,0.09-0.2,0.2-0.2h1.01
		c0.11,0,0.2,0.09,0.2,0.2v5.36c0,0.67,0.2,0.88,0.8,0.88H479c0.11,0,0.2,0.09,0.2,0.2v0.65C479.21,114.89,479.16,114.93,479,114.96
		"/>
	<path class="st0" d="M506.52,115.02h-1.08c-0.09,0-0.17-0.08-0.19-0.17l-0.47-1.94h-2.35l-0.47,1.94c-0.02,0.09-0.1,0.17-0.19,0.17
		h-1.08c-0.1,0-0.18-0.07-0.18-0.17c0-0.01,0.01-0.03,0.01-0.05l1.67-6.39c0.25-0.95,0.98-1.04,1.42-1.04s1.17,0.09,1.42,1.04
		l1.67,6.39c0,0.02,0.01,0.04,0.01,0.05C506.71,114.95,506.62,115.02,506.52,115.02 M503.77,108.72c-0.03-0.12-0.06-0.16-0.16-0.16
		c-0.1,0-0.13,0.04-0.16,0.16l-0.73,3.03h1.79L503.77,108.72z"/>
	<path class="st0" d="M521.39,114.93c-0.51,0.1-1.17,0.17-2.22,0.17c-1.1,0-2.73-0.72-2.73-3.13v-1.47c0-2.42,1.55-3.14,2.76-3.14
		c0.98,0,1.86,0.12,2.19,0.18c0.13,0.03,0.19,0.08,0.19,0.21v0.68c0,0.14-0.04,0.21-0.2,0.21h-0.03c-0.47-0.04-1.17-0.08-2.15-0.08
		c-0.68,0-1.34,0.48-1.34,1.93v1.47c0,1.45,0.7,1.92,1.3,1.92c0.38,0,0.69-0.01,1.01-0.03v-2.6c0-0.11,0.08-0.2,0.19-0.2h1.01
		c0.11,0,0.2,0.09,0.2,0.2v3.43C521.58,114.82,521.52,114.9,521.39,114.93"/>
	<path class="st0" d="M536.58,114.96c-0.33,0.05-0.72,0.14-1.94,0.14c-1.33,0-2.36-0.36-2.36-2.09v-3.56c0-1.73,1.03-2.09,2.36-2.09
		c1.21,0,1.61,0.09,1.94,0.14c0.15,0.02,0.2,0.07,0.2,0.21v0.65c0,0.11-0.09,0.2-0.2,0.2h-2.08c-0.59,0-0.81,0.2-0.81,0.88v1.1h2.76
		c0.11,0,0.2,0.09,0.2,0.2v0.73c0,0.11-0.09,0.2-0.2,0.2h-2.76v1.32c0,0.67,0.21,0.88,0.81,0.88h2.08c0.11,0,0.2,0.09,0.2,0.2v0.65
		C536.78,114.89,536.73,114.94,536.58,114.96"/>
	<path class="st0" d="M552.66,115.02h-1.03c-0.24,0-0.46,0-0.62-0.37l-2.26-4.97c-0.03-0.06-0.06-0.08-0.09-0.08
		c-0.03,0-0.05,0.02-0.05,0.08v5.13c0,0.11-0.08,0.2-0.19,0.2h-0.87c-0.11,0-0.2-0.09-0.2-0.2v-6.96c0-0.22,0.18-0.41,0.41-0.41h1.1
		c0.21,0,0.33,0.06,0.45,0.33l2.38,5.24c0.02,0.05,0.05,0.08,0.08,0.08c0.02,0,0.05-0.03,0.05-0.09v-5.36
		c0-0.11,0.08-0.19,0.19-0.19h0.88c0.11,0,0.19,0.08,0.19,0.19v6.97C553.07,114.84,552.88,115.02,552.66,115.02"/>
	<path class="st0" d="M568.07,114.94c-0.15,0.04-0.83,0.16-1.61,0.16c-1.22,0-2.89-0.6-2.89-3.12v-1.5c0-2.56,1.66-3.12,2.89-3.12
		c0.79,0,1.46,0.12,1.61,0.16c0.13,0.04,0.22,0.09,0.22,0.23v0.68c0,0.12-0.05,0.21-0.2,0.21h-0.02c-0.36-0.03-1.05-0.08-1.59-0.08
		c-0.86,0-1.48,0.46-1.48,1.91v1.5c0,1.42,0.62,1.91,1.48,1.91c0.54,0,1.23-0.05,1.59-0.08h0.02c0.15,0,0.2,0.09,0.2,0.21v0.68
		C568.29,114.85,568.2,114.9,568.07,114.94"/>
	<path class="st0" d="M583.92,107.68l-1.55,3.54c-0.19,0.45-0.4,0.65-0.62,0.74v2.86c0,0.11-0.08,0.2-0.19,0.2h-1.02
		c-0.11,0-0.19-0.09-0.19-0.2v-2.86c-0.22-0.09-0.43-0.3-0.62-0.74l-1.54-3.54c-0.01-0.03-0.02-0.06-0.02-0.08
		c0-0.08,0.06-0.15,0.16-0.15h1.13c0.09,0,0.16,0.08,0.19,0.16l1.22,3.04c0.07,0.17,0.13,0.2,0.17,0.2c0.05,0,0.11-0.03,0.18-0.2
		l1.22-3.04c0.03-0.08,0.1-0.16,0.19-0.16h1.12c0.1,0,0.17,0.07,0.17,0.15C583.94,107.63,583.93,107.65,583.92,107.68"/>
</g>
</svg>
