<?xml version="1.0" encoding="utf-8"?>
<!-- Generator: Adobe Illustrator 24.1.3, SVG Export Plug-In . SVG Version: 6.00 Build 0)  -->
<svg version="1.1" id="Layer_1" xmlns="http://www.w3.org/2000/svg" xmlns:xlink="http://www.w3.org/1999/xlink" x="0px" y="0px"
	 viewBox="0 0 240.77 79.77" style="enable-background:new 0 0 240.77 79.77;" xml:space="preserve">
<style type="text/css">
	.st0{fill:#18348C;}
</style>
<path class="st0" d="M-123.58-27.8c1.37-1.7,3.07-3.26,1.81-5.99c-1.43-3.11-3.23-4.26-6.61-3.44
	c-20.35,4.91-40.09,11.53-58.99,20.65c-1.45,0.7-2.85,1.48-4.28,2.2c-16.1-8.87-34.6-13.93-54.29-13.93
	c-62.22,0-112.67,50.44-112.67,112.67s50.44,112.67,112.67,112.67s112.67-50.44,112.67-112.67c0-23.89-7.46-46.03-20.14-64.26
	c4.46-11.74,10.36-22.83,17.78-33.06C-131.9-18.1-127.57-22.82-123.58-27.8 M-286.91,99.72c-8.48,0-15.36-6.88-15.36-15.36
	c0-8.48,6.88-15.36,15.36-15.36c8.49,0,15.36,6.88,15.36,15.36C-271.55,92.84-278.43,99.72-286.91,99.72 M-245.94,99.72
	c-8.48,0-15.36-6.88-15.36-15.36c0-8.48,6.88-15.36,15.36-15.36c8.49,0,15.36,6.88,15.36,15.36
	C-230.58,92.84-237.46,99.72-245.94,99.72 M-204.97,99.72c-8.48,0-15.36-6.88-15.36-15.36c0-8.48,6.88-15.36,15.36-15.36
	c8.49,0,15.36,6.88,15.36,15.36C-189.61,92.84-196.49,99.72-204.97,99.72"/>
<g>
	<path class="st0" d="M23.2,58.39c-5.48,0-9.95-0.73-13.49-1.74c-0.67-0.2-1.4-0.6-1.4-1.34v-8.21c0-0.93,0.4-1.4,1.4-1.34
		c2.87,0.27,10.02,1,13.55,1c3.27,0,4.21-1.27,4.21-3.4c0-1.34-0.67-2.07-3.14-3.54l-9.62-5.68c-6.28-3.67-7.95-8.21-7.95-13.35
		c0-7.28,4.01-13.29,17.49-13.29c5.28,0,12.42,0.87,15.16,1.67c0.6,0.2,1.2,0.53,1.2,1.27v8.35c0,0.73-0.27,1.34-1.34,1.27
		c-2.74-0.2-10.35-0.87-15.16-0.87c-2.47,0-3.34,0.87-3.34,2.27c0,1.2,0.6,1.87,3.47,3.41l9.01,4.81c6.48,3.47,8.81,7.88,8.81,13.42
		C42.1,50.58,36.95,58.39,23.2,58.39"/>
	<path class="st0" d="M184.51,57.79h-12.29c-0.73,0-1-0.67-1.34-1.34l-8.48-16.29c-1,0-1.74,0-3.81-0.07v16.36
		c0,0.73-0.6,1.34-1.34,1.34h-10.82c-0.73,0-1.4-0.6-1.4-1.34V12.79c0-3.21,1.07-3.94,3.87-4.41c2.67-0.4,9.35-0.87,14.09-0.87
		c12.42,0,20.9,3.94,20.9,16.16v1.07c0,7.14-3.94,11.35-8.15,13.15l9.68,18.16c0.13,0.27,0.2,0.53,0.2,0.73
		C185.65,57.39,185.18,57.79,184.51,57.79 M170.43,23.67c0-3.14-2.2-4.74-6.68-4.74c-0.47,0-3.2,0-5.14,0.13v10.62
		c0.33,0.07,4.47,0.07,4.87,0.07c5.14,0,6.94-1.8,6.94-4.94V23.67z"/>
	<path class="st0" d="M233.12,57.79H219.1c-0.8,0-1.07-0.53-1.4-1.14l-11.75-21.3v21.1c0,0.73-0.6,1.34-1.34,1.34h-10.88
		c-0.73,0-1.4-0.6-1.4-1.34V9.45c0-0.73,0.67-1.27,1.4-1.27h10.88c0.73,0,1.34,0.53,1.34,1.27v21.17l12.82-21.37
		c0.33-0.6,0.73-1.07,1.47-1.07h12.82c0.6,0,0.93,0.27,0.93,0.73c0,0.2-0.07,0.47-0.27,0.73l-14.56,22.97l14.62,23.77
		c0.13,0.2,0.2,0.47,0.2,0.67C233.99,57.46,233.72,57.79,233.12,57.79"/>
	<path class="st0" d="M84.49,53.45c1.64-3.21,3.55-6.25,5.68-9.12V9.45c0-0.73-0.6-1.27-1.34-1.27H77.95
		c-0.73,0-1.34,0.53-1.34,1.27v17.09H62.66V9.45c0-0.73-0.6-1.27-1.34-1.27H50.44c-0.73,0-1.4,0.53-1.4,1.27v47.01
		c0,0.73,0.67,1.34,1.4,1.34h10.88c0.73,0,1.34-0.6,1.34-1.34V38.3h13.95v18.16c0,0.73,0.6,1.34,1.34,1.34h4.48
		C83.09,56.33,83.76,54.88,84.49,53.45"/>
	<path class="st0" d="M130.43,15.53c-1.47-6.61-6.48-7.95-12.82-7.95c-6.34,0-11.35,1.34-12.82,7.95l-3.76,17.16
		c0.62-0.51,1.24-1.02,1.88-1.51c3.56-2.74,7.37-5.09,11.43-7.05c4.56-2.2,9.32-3.79,14.22-4.98c0.82-0.2,1.25,0.08,1.59,0.83
		c0.3,0.66-0.11,1.03-0.44,1.44c-0.96,1.2-2.01,2.34-2.91,3.58c-2.11,2.9-3.71,6.09-4.83,9.49c-0.66,2-1.12,4.06-1.58,6.11
		c-0.3,1.36-0.45,2.76-0.64,4.14c-0.09,0.63-0.11,1.26-0.15,1.89c-0.08,1.57-0.23,3.14-0.18,4.71c0.05,1.69,0.24,3.38,0.42,5.07
		c2.85,0.56,6.51,0.66,11.25,0c2.97-0.41,5.65-0.7,8.09-0.9L130.43,15.53z"/>
	<path class="st0" d="M13.53,72.26c-0.83,0-1.95-0.08-2.3-0.14c-0.2-0.04-0.3-0.13-0.3-0.36V63.9c0-0.23,0.1-0.33,0.3-0.36
		c0.35-0.06,1.47-0.14,2.3-0.14c2.34,0,3.67,1.26,3.67,3.57v1.72C17.2,71,15.87,72.26,13.53,72.26 M15.59,66.97
		c0-1.75-0.89-2.21-2.06-2.21c-0.43,0-0.74,0.02-0.98,0.04v6.06c0.24,0.01,0.55,0.03,0.98,0.03c1.17,0,2.06-0.45,2.06-2.21V66.97z"
		/>
	<path class="st0" d="M30.62,72.16h-1.16c-0.13,0-0.23-0.1-0.23-0.23v-8.22c0-0.13,0.1-0.22,0.23-0.22h1.16
		c0.13,0,0.23,0.09,0.23,0.22v8.22C30.85,72.06,30.74,72.16,30.62,72.16"/>
	<path class="st0" d="M48.55,72.06c-0.58,0.12-1.34,0.2-2.55,0.2c-1.26,0-3.13-0.83-3.13-3.59v-1.68c0-2.77,1.78-3.6,3.16-3.6
		c1.12,0,2.13,0.14,2.51,0.21c0.15,0.03,0.22,0.09,0.22,0.24v0.78c0,0.16-0.05,0.25-0.23,0.25h-0.03c-0.54-0.05-1.34-0.09-2.46-0.09
		c-0.78,0-1.53,0.55-1.53,2.21v1.68c0,1.66,0.81,2.2,1.49,2.2c0.43,0,0.79-0.01,1.16-0.03v-2.98c0-0.13,0.09-0.23,0.22-0.23h1.16
		c0.13,0,0.23,0.11,0.23,0.23v3.92C48.77,71.93,48.7,72.02,48.55,72.06"/>
	<path class="st0" d="M62.42,72.16h-1.16c-0.13,0-0.23-0.1-0.23-0.23v-8.22c0-0.13,0.1-0.22,0.23-0.22h1.16
		c0.13,0,0.23,0.09,0.23,0.22v8.22C62.66,72.06,62.55,72.16,62.42,72.16"/>
	<path class="st0" d="M80.28,64.84h-2.04v7.09c0,0.13-0.1,0.23-0.23,0.23h-1.16c-0.13,0-0.23-0.1-0.23-0.23v-7.09h-2.04
		c-0.13,0-0.23-0.08-0.23-0.21v-0.92c0-0.13,0.11-0.22,0.23-0.22h5.71c0.13,0,0.23,0.09,0.23,0.22v0.92
		C80.51,64.76,80.41,64.84,80.28,64.84"/>
	<path class="st0" d="M97.55,72.16h-1.24c-0.1,0-0.2-0.09-0.22-0.2l-0.54-2.22h-2.69l-0.54,2.22c-0.02,0.1-0.12,0.2-0.22,0.2h-1.24
		c-0.12,0-0.21-0.08-0.21-0.2c0-0.01,0.01-0.03,0.01-0.06l1.91-7.32c0.28-1.09,1.12-1.19,1.62-1.19c0.5,0,1.34,0.1,1.62,1.19
		l1.92,7.32c0,0.02,0.01,0.05,0.01,0.06C97.76,72.08,97.67,72.16,97.55,72.16 M94.4,64.95c-0.03-0.14-0.07-0.19-0.19-0.19
		c-0.12,0-0.15,0.05-0.19,0.19l-0.84,3.47h2.06L94.4,64.95z"/>
	<path class="st0" d="M113.82,72.09c-0.35,0.08-1.37,0.16-1.99,0.16c-1.52,0-2.7-0.41-2.7-2.39v-6.14c0-0.13,0.11-0.23,0.23-0.23
		h1.16c0.13,0,0.23,0.11,0.23,0.23v6.14c0,0.77,0.23,1,0.91,1h2.15c0.13,0,0.23,0.11,0.23,0.23v0.75
		C114.05,72.01,113.99,72.06,113.82,72.09"/>
	<path class="st0" d="M145.33,72.16h-1.24c-0.1,0-0.2-0.09-0.22-0.2l-0.54-2.22h-2.69l-0.54,2.22c-0.02,0.1-0.12,0.2-0.22,0.2h-1.24
		c-0.12,0-0.21-0.08-0.21-0.2c0-0.01,0.01-0.03,0.01-0.06l1.91-7.32c0.28-1.09,1.12-1.19,1.62-1.19c0.5,0,1.34,0.1,1.62,1.19
		l1.92,7.32c0,0.02,0.01,0.05,0.01,0.06C145.54,72.08,145.45,72.16,145.33,72.16 M142.18,64.95c-0.03-0.14-0.07-0.19-0.19-0.19
		c-0.12,0-0.15,0.05-0.19,0.19l-0.84,3.47h2.06L142.18,64.95z"/>
	<path class="st0" d="M162.36,72.06c-0.58,0.12-1.34,0.2-2.55,0.2c-1.26,0-3.13-0.83-3.13-3.59v-1.68c0-2.77,1.78-3.6,3.16-3.6
		c1.12,0,2.13,0.14,2.51,0.21c0.15,0.03,0.22,0.09,0.22,0.24v0.78c0,0.16-0.05,0.25-0.23,0.25h-0.03c-0.54-0.05-1.34-0.09-2.46-0.09
		c-0.78,0-1.53,0.55-1.53,2.21v1.68c0,1.66,0.81,2.2,1.49,2.2c0.43,0,0.79-0.01,1.16-0.03v-2.98c0-0.13,0.09-0.23,0.22-0.23h1.16
		c0.13,0,0.23,0.11,0.23,0.23v3.92C162.58,71.93,162.51,72.02,162.36,72.06"/>
	<path class="st0" d="M179.76,72.09c-0.37,0.06-0.83,0.16-2.22,0.16c-1.52,0-2.7-0.41-2.7-2.39v-4.08c0-1.99,1.18-2.39,2.7-2.39
		c1.39,0,1.85,0.11,2.22,0.16c0.18,0.02,0.23,0.08,0.23,0.24v0.75c0,0.13-0.1,0.23-0.23,0.23h-2.38c-0.68,0-0.92,0.23-0.92,1v1.26
		h3.16c0.13,0,0.23,0.1,0.23,0.23v0.84c0,0.13-0.1,0.23-0.23,0.23h-3.16v1.51c0,0.77,0.25,1,0.92,1h2.38c0.13,0,0.23,0.11,0.23,0.23
		v0.75C179.99,72.01,179.93,72.07,179.76,72.09"/>
	<path class="st0" d="M198.17,72.16h-1.18c-0.28,0-0.53,0-0.71-0.42l-2.59-5.69c-0.03-0.07-0.07-0.09-0.11-0.09
		c-0.04,0-0.06,0.02-0.06,0.09v5.87c0,0.13-0.09,0.23-0.22,0.23h-0.99c-0.13,0-0.23-0.1-0.23-0.23v-7.98c0-0.26,0.21-0.47,0.47-0.47
		h1.26c0.24,0,0.37,0.07,0.51,0.37l2.72,6c0.02,0.06,0.06,0.09,0.09,0.09c0.02,0,0.06-0.04,0.06-0.11v-6.14
		c0-0.13,0.09-0.22,0.22-0.22h1c0.13,0,0.22,0.09,0.22,0.22v7.99C198.64,71.95,198.43,72.16,198.17,72.16"/>
	<path class="st0" d="M215.82,72.07c-0.18,0.05-0.95,0.19-1.85,0.19c-1.4,0-3.3-0.69-3.3-3.57v-1.72c0-2.93,1.9-3.57,3.3-3.57
		c0.9,0,1.67,0.14,1.85,0.19c0.15,0.05,0.26,0.11,0.26,0.27v0.78c0,0.14-0.06,0.25-0.23,0.25h-0.02c-0.41-0.04-1.2-0.09-1.82-0.09
		c-0.98,0-1.69,0.53-1.69,2.18v1.72c0,1.62,0.71,2.18,1.69,2.18c0.62,0,1.41-0.06,1.82-0.09h0.02c0.17,0,0.23,0.1,0.23,0.25v0.78
		C216.08,71.97,215.97,72.02,215.82,72.07"/>
	<path class="st0" d="M233.98,63.76l-1.77,4.05c-0.22,0.51-0.46,0.75-0.71,0.85v3.27c0,0.13-0.09,0.23-0.22,0.23h-1.17
		c-0.13,0-0.22-0.1-0.22-0.23v-3.27c-0.26-0.1-0.49-0.34-0.71-0.85l-1.76-4.05c-0.01-0.03-0.02-0.07-0.02-0.09
		c0-0.09,0.07-0.18,0.19-0.18h1.3c0.1,0,0.19,0.09,0.22,0.19l1.4,3.48c0.08,0.2,0.15,0.23,0.2,0.23c0.06,0,0.13-0.04,0.21-0.23
		l1.4-3.48c0.04-0.09,0.12-0.19,0.22-0.19h1.28c0.12,0,0.2,0.08,0.2,0.18C234,63.7,233.99,63.72,233.98,63.76"/>
</g>
</svg>
